<?xml version="1.0" standalone="no"?>
<!DOCTYPE svg PUBLIC "-//W3C//DTD SVG 20010904//EN"
 "http://www.w3.org/TR/2001/REC-SVG-20010904/DTD/svg10.dtd">
<svg version="1.0" xmlns="http://www.w3.org/2000/svg"
 width="310.000000pt" height="310.000000pt" viewBox="0 0 310.000000 310.000000"
 preserveAspectRatio="xMidYMid meet">
<metadata>
Created by potrace 1.11, written by Peter Selinger 2001-2013
</metadata>
<g transform="translate(0.000000,310.000000) scale(0.100000,-0.100000)"
fill="#000000" stroke="none">
<path d="M0 1550 l0 -1550 1550 0 1550 0 0 1550 0 1550 -1550 0 -1550 0 0
-1550z m854 581 c142 -50 238 -146 285 -284 l20 -57 -22 -5 c-62 -15 -220 -45
-222 -43 -2 2 -13 27 -25 56 -53 123 -193 180 -340 136 -39 -12 -66 -29 -106
-68 -67 -67 -93 -144 -101 -296 -14 -258 62 -422 215 -466 153 -45 285 28 343
186 17 47 26 59 38 55 10 -3 62 -20 116 -39 117 -39 116 -36 61 -153 -81 -171
-222 -259 -431 -270 -380 -20 -632 271 -600 691 14 190 67 318 175 427 73 74
138 111 244 140 94 26 263 21 350 -10z m735 -323 c105 -480 114 -515 119 -498
3 8 56 197 117 420 l111 405 152 3 151 3 10 -38 c6 -21 54 -213 107 -427 54
-214 100 -382 104 -375 4 8 50 200 101 426 l94 413 126 0 126 0 -124 -502
c-68 -277 -137 -555 -152 -618 l-29 -115 -136 -3 c-75 -1 -136 0 -136 2 0 9
-240 909 -243 912 -1 2 -59 -203 -128 -454 l-126 -457 -139 0 -139 0 -140 590
c-78 325 -144 602 -148 618 l-7 27 128 0 129 0 72 -332z"/>
</g>
</svg>
